<svg width="52" height="77" viewBox="0 0 52 77" fill="none" xmlns="http://www.w3.org/2000/svg">
<path fill-rule="evenodd" clip-rule="evenodd" d="M24.6172 50.9624C11.4533 50.2448 1 39.3431 1 26C1 12.1929 12.1929 1 26 1C39.8071 1 51 12.1929 51 26C51 33.7522 47.4715 40.6804 41.9329 45.2659L20 76L24.6172 50.9624ZM35.8836 41.0462L31.9221 43.0031C30.0675 43.649 28.0747 44 26 44C16.0589 44 8 35.9411 8 26C8 16.0589 16.0589 8 26 8C35.9411 8 44 16.0589 44 26C44 32.2909 40.7728 37.828 35.8836 41.0462Z" fill="#0095B6"/>
<path fill-rule="evenodd" clip-rule="evenodd" d="M0.5 26C0.5 11.9167 11.9167 0.5 26 0.5C40.0833 0.5 51.5 11.9167 51.5 26C51.5 33.8839 47.9216 40.9325 42.3022 45.6092L20.407 76.2904L19.5083 75.9093L24.0236 51.4245C10.8637 50.4155 0.5 39.4182 0.5 26ZM26 1.5C12.469 1.5 1.5 12.469 1.5 26C1.5 39.0761 11.7442 49.7599 24.6445 50.4631L25.212 50.4941L20.8996 73.8786L41.5638 44.9224L41.614 44.8808C47.0428 40.3861 50.5 33.597 50.5 26C50.5 12.469 39.531 1.5 26 1.5ZM7.5 26C7.5 15.7827 15.7827 7.5 26 7.5C36.2173 7.5 44.5 15.7827 44.5 26C44.5 32.4661 41.1822 38.1571 36.1585 41.4638L36.1327 41.4808L32.1158 43.4651L32.0866 43.4753C30.1798 44.1393 28.1315 44.5 26 44.5C15.7827 44.5 7.5 36.2173 7.5 26ZM26 8.5C16.335 8.5 8.5 16.335 8.5 26C8.5 35.665 16.335 43.5 26 43.5C28.0072 43.5 29.9344 43.1623 31.7286 42.541L35.6343 40.6117C40.3746 37.4796 43.5 32.1047 43.5 26C43.5 16.335 35.665 8.5 26 8.5Z" fill="#0095B6"/>
</svg>
