<svg xmlns="http://www.w3.org/2000/svg" viewBox="0 0 298.48 186.71"><title>UnionPay logo</title><path d="M421.22,418.64h74.5c10.4,0,16.87,8.48,14.45,18.92l-34.69,148.9c-2.45,10.41-12.86,18.89-23.26,18.89h-74.5c-10.4,0-16.87-8.48-14.44-18.89L398,437.56c2.42-10.44,12.82-18.92,23.24-18.92" transform="translate(-362.76 -418.64)" style="fill:#ed171f"/><path d="M489.52,418.64h85.67c10.4,0,5.71,8.48,3.27,18.92l-34.69,148.9c-2.42,10.41-1.66,18.89-12.09,18.89H446c-10.42,0-16.87-8.48-14.42-18.89l34.67-148.9c2.45-10.44,12.85-18.92,23.25-18.92" transform="translate(-362.76 -418.64)" style="fill:#082f67"/><path d="M571.8,418.64h74.48c10.41,0,16.87,8.48,14.44,18.92L626,586.47c-2.44,10.41-12.84,18.89-23.28,18.89H528.3c-10.42,0-16.88-8.48-14.44-18.89l34.67-148.9c2.44-10.44,12.84-18.92,23.27-18.92" transform="translate(-362.76 -418.64)" style="fill:#006a65"/><path d="M559.35,558.73h7l2-6.75h-7ZM565,540.09l-2.41,8a34,34,0,0,1,4.1-1.79c1.44-.33,3.63-.61,3.63-.61l1.71-5.59Zm3.49-11.49-2.33,7.68a38.47,38.47,0,0,1,4-1.57,24.5,24.5,0,0,1,3.61-.52l1.69-5.59Zm15.53,0-9.08,30h2.44l-1.88,6.21H573l-.57,1.93h-8.64l.59-1.93H546.85l1.77-5.75h1.77l9.21-30.5,1.84-6.16h8.81l-.92,3.12a16.49,16.49,0,0,1,4.57-2.27c2.23-.58,15-.8,15-.8L587,528.6Z" transform="translate(-362.76 -418.64)" style="fill:#fff;fill-rule:evenodd"/><path d="M587.89,522.48h9.41l.11,3.51c-.06.59.45.87,1.54.87h1.91l-1.75,5.79H594c-4.41.32-6.07-1.57-6-3.69Z" transform="translate(-362.76 -418.64)" style="fill:#fff"/><path d="M589.12,549.94h-9l1.54-5.16h10.25l1.47-4.7H583.29l1.74-5.81h28.17l-1.77,5.81H602l-1.48,4.7H610l-1.56,5.16H598.16l-1.81,2.17h4.15l1,6.49a3.49,3.49,0,0,0,.33,1.34,5,5,0,0,0,2.18.35h1.26l-1.92,6.32h-3.2c-.49,0-1.23,0-2.23-.1a6.21,6.21,0,0,1-2.29-1,3.09,3.09,0,0,1-1.67-2.21l-1-6.48-4.65,6.39a8,8,0,0,1-6.86,3.55h-6.53l1.71-5.64h2.49a4,4,0,0,0,1.83-.53,2.79,2.79,0,0,0,1.39-1.15Z" transform="translate(-362.76 -418.64)" style="fill:#fff"/><path d="M490.91,535.83h23.74l-1.75,5.67h-9.5l-1.48,4.82h9.71l-1.77,5.85h-9.7L497.81,560c-.29.87,2.29,1,3.23,1l4.87-.67L504,566.82H493a10.62,10.62,0,0,1-2.49-.34,2.6,2.6,0,0,1-1.74-1.27,2.51,2.51,0,0,1-.59-2.53l3.14-10.41h-5.39l1.79-6h5.42l1.44-4.82h-5.4Z" transform="translate(-362.76 -418.64)" style="fill:#fff"/><path d="M506.9,525.65h9.74l-1.78,5.92H501.55l-1.45,1.24c-.61.6-.83.35-1.63.79a9.65,9.65,0,0,1-4.39,1.13h-4.27l1.73-5.7h1.28a4.59,4.59,0,0,0,2.19-.33,5.15,5.15,0,0,0,1.44-1.85l2.44-4.45h9.69Z" transform="translate(-362.76 -418.64)" style="fill:#fff"/><path d="M525.59,535.39a15.3,15.3,0,0,1,7.2-3.22c1-.2,7.51-.14,7.51-.14l1-3.25H527.57Zm12.85,2.48h-13.6l-.83,2.75h11.77a9.78,9.78,0,0,1,1.79,0Zm-17.62-15.39h8.3l-1.21,4.17a24.15,24.15,0,0,1,4.45-2.84,41.92,41.92,0,0,1,6-1.3l13.42-.07-4.57,15.23a17.48,17.48,0,0,1-2.22,5.07,5.76,5.76,0,0,1-2.28,2.08,8.47,8.47,0,0,1-3.11,1c-.89.07-2.25.1-4.14.12H522.51l-3.65,12.06c-.34,1.19-.51,1.75-.29,2.07a1.49,1.49,0,0,0,1.24.62l5.7-.54-1.94,6.61h-6.39c-2,0-3.51,0-4.55-.12a5,5,0,0,1-2.69-.54c-.6-.52-1.51-1.21-1.49-1.91a22.38,22.38,0,0,1,.76-3.23Z" transform="translate(-362.76 -418.64)" style="fill:#fff;fill-rule:evenodd"/><path d="M545,547.07l-.76,3.66a5.07,5.07,0,0,1-1.49,2.75A6,6,0,0,1,538.3,555l-4.6.19,0,4.14c-.06,1.18.25,1.05.44,1.24a1.48,1.48,0,0,0,.61.36l1.45-.07,4.4-.26-1.81,6h-5c-3.54,0-6.16-.08-7-.77-.84-.53-1-1.22-.93-2.37l.32-16.13h8l-.1,3.29H536a2.8,2.8,0,0,0,1.38-.24,1.7,1.7,0,0,0,.55-.85l.78-2.57Z" transform="translate(-362.76 -418.64)" style="fill:#fff"/><path d="M430,466.22c-.29,1.3-5.46,25.16-5.48,25.17-1.12,4.82-1.91,8.28-4.66,10.49a8.38,8.38,0,0,1-5.5,1.92c-3.39,0-5.38-1.69-5.72-4.89l-.06-1.1s1-6.47,1-6.5,5.42-21.74,6.39-24.61l.09-.32c-10.56.1-12.45,0-12.57-.16-.06.21-.34,1.56-.34,1.56l-5.54,24.49-.48,2.09-.91,6.79a10,10,0,0,0,1.18,5c2.53,4.42,9.73,5.08,13.8,5.08,5.25,0,10.16-1.12,13.49-3.14,5.77-3.42,7.29-8.76,8.64-13.49l.62-2.42s5.59-22.58,6.55-25.52a1.2,1.2,0,0,1,.08-.32c-7.65.08-9.91,0-10.63-.16" transform="translate(-362.76 -418.64)" style="fill:#fff"/><path d="M461,511c-3.75-.05-5.07-.05-9.45.17l-.17-.32c.39-1.66.8-3.31,1.17-5l.54-2.28c.81-3.55,1.61-7.68,1.7-8.92.07-.76.33-2.65-1.83-2.65a7.29,7.29,0,0,0-2.82.88c-.53,1.89-1.6,7.18-2.09,9.61-1.09,5.09-1.16,5.67-1.65,8.19L446,511c-3.87-.05-5.2-.05-9.64.17l-.21-.37c.75-3,1.49-6.08,2.19-9.1a132.93,132.93,0,0,0,2.82-15.5l.35-.25c4.34-.61,5.38-.73,10.07-1.69l.4.44-.71,2.61c.79-.47,1.54-.95,2.36-1.36a14.69,14.69,0,0,1,6-1.41c2,0,4.29.58,5.23,2.95.89,2.12.3,4.73-.87,9.87l-.61,2.61c-1.2,5.72-1.4,6.77-2.07,10.69Z" transform="translate(-362.76 -418.64)" style="fill:#fff"/><path d="M476.17,511c-2.25,0-3.7-.05-5.12,0s-2.78.08-4.88.18L466,511l-.14-.19a33.26,33.26,0,0,1,1.17-3.7,24.24,24.24,0,0,0,1.06-3.74c.66-2.87,1.06-4.88,1.35-6.63s.47-3.14.68-4.82l.18-.13.19-.16c2.24-.32,3.68-.53,5.12-.75s3-.5,5.28-.94l.09.2.06.2c-.43,1.78-.87,3.55-1.29,5.36s-.85,3.56-1.24,5.35c-.85,3.78-1.18,5.18-1.38,6.19s-.25,1.49-.58,3.44l-.2.18Z" transform="translate(-362.76 -418.64)" style="fill:#fff"/><path d="M500,497.72c-.21,1-1,4.59-2.21,6.12a3.61,3.61,0,0,1-2.81,1.81c-.3,0-2.14,0-2.18-2.75a18.36,18.36,0,0,1,.6-4.26c1-4.36,2.15-8,5.12-8,2.34,0,2.49,2.72,1.48,7.1m9.79.42c1.31-5.76.31-8.46-1-10.11-2-2.49-5.4-3.29-9-3.29-2.15,0-7.27.22-11.27,3.92-2.86,2.65-4.2,6.27-5,9.72s-1.74,9.88,4.1,12.24a17.41,17.41,0,0,0,6.07,1c4.28,0,8.67-1.18,11.95-4.68,2.56-2.84,3.72-7.06,4.11-8.78" transform="translate(-362.76 -418.64)" style="fill:#fff"/><path d="M601.43,511.42c-4.52,0-5.82,0-10,.14l-.28-.34c1.14-4.3,2.29-8.58,3.29-12.93a98.3,98.3,0,0,0,2-11.33l.34-.28c4.49-.64,5.73-.82,10.41-1.68l.15.38c-.85,3.54-1.71,7.07-2.53,10.62-1.73,7.43-2.35,11.21-3,15.1Z" transform="translate(-362.76 -418.64)" style="fill:#fff"/><path d="M594.64,498.22c-.22.92-1.07,4.58-2.23,6.09a5.16,5.16,0,0,1-3.64,1.77c-.3,0-2.13,0-2.2-2.72a18.52,18.52,0,0,1,.62-4.26c1-4.27,2.15-7.92,5.12-7.92,2.34,0,3.34,2.66,2.33,7m8.94.43c1.31-5.73-4-.51-4.82-2.4-1.3-2.95-.48-8.94-5.7-10.93-2-.78-6.7.23-10.72,3.9-2.84,2.64-4.2,6.22-5,9.67s-1.74,9.82,4.07,12.1a11.7,11.7,0,0,0,5.19.94c5.84-.32,10.3-9.13,13.59-12.63,2.54-2.76,3,1,3.37-.64" transform="translate(-362.76 -418.64)" style="fill:#fff"/><path d="M535.42,511c-3.76-.05-5-.05-9.45.17l-.16-.32c.37-1.66.8-3.31,1.19-5l.53-2.28c.81-3.55,1.61-7.68,1.7-8.92.07-.76.32-2.65-1.82-2.65a7.29,7.29,0,0,0-2.83.88c-.52,1.89-1.6,7.18-2.11,9.61-1.07,5.09-1.14,5.67-1.63,8.19l-.32.33c-3.86-.05-5.19-.05-9.62.17l-.2-.37c.74-3,1.46-6.08,2.17-9.1a132.18,132.18,0,0,0,2.82-15.5L516,486c4.33-.61,5.38-.73,10.07-1.69l.37.44-.68,2.61c.77-.47,1.55-.95,2.35-1.36a14.63,14.63,0,0,1,6-1.41c2.05,0,4.3.58,5.27,2.95.88,2.12.29,4.73-.9,9.87l-.59,2.61c-1.23,5.72-1.42,6.77-2.07,10.69Z" transform="translate(-362.76 -418.64)" style="fill:#fff"/><path d="M567.89,466.17l-3.11,0c-8.1.09-11.35.05-12.68-.11-.14.59-.34,1.65-.34,1.65l-2.89,13.46s-6.94,28.6-7.26,29.94c7.07-.08,10-.08,11.18,0l1.93-9.33s1.41-5.87,1.49-6.08a3.35,3.35,0,0,1,.89-.84h.64c6.09,0,13,0,18.38-4a19.61,19.61,0,0,0,7.3-11.62,17.21,17.21,0,0,0,.51-4.06,8.47,8.47,0,0,0-1.47-5.17c-2.75-3.85-8.21-3.91-14.56-3.95m4.06,14a9.85,9.85,0,0,1-5.08,6.71c-2.06,1-4.57,1.11-7.16,1.11H558l.12-.67s3.09-13.43,3.08-13.38l.09-.68.06-.53,1.23.13,6.51.57c2.51,1,3.54,3.48,2.82,6.75" transform="translate(-362.76 -418.64)" style="fill:#fff"/><path d="M638.45,485l-.36-.4c-4.61.92-5.46,1.08-9.71,1.64l-.32.31a1.57,1.57,0,0,0,0,.2l0-.06c-3.17,7.31-3.06,5.73-5.65,11.48,0-.27,0-.44,0-.71L621.68,485l-.41-.4c-4.83.92-5,1.08-9.43,1.64l-.36.31c0,.16,0,.32-.07.5l0,.07a62.14,62.14,0,0,1,1,6.73c.26,2.21.6,4.45.86,6.63.45,3.66.69,5.47,1.22,11-3,5-3.74,6.89-6.61,11.27l.15.4c4.37-.16,5.38-.16,8.62-.16l.71-.8c2.44-5.27,21.06-37.22,21.06-37.22" transform="translate(-362.76 -418.64)" style="fill:#fff"/><path d="M480.29,488.05c2.47-1.73,2.79-4.11.69-5.35s-5.81-.85-8.31.88-2.79,4.09-.69,5.34,5.8.86,8.3-.87" transform="translate(-362.76 -418.64)" style="fill:#fff"/><path d="M617.06,522.61l-3.64,6.23a7.15,7.15,0,0,1-6.68,3.74l-5.8-.1,1.68-5.61h1.12a3.17,3.17,0,0,0,1.37-.2,1.54,1.54,0,0,0,.73-.65l2.14-3.4Z" transform="translate(-362.76 -418.64)" style="fill:#fff"/></svg>